<svg id="Grupo_862" data-name="Grupo 862" xmlns="http://www.w3.org/2000/svg" width="285.557" height="84.719" viewBox="0 0 285.557 84.719">
  <g id="Grupo_815" data-name="Grupo 815">
    <g id="Grupo_801" data-name="Grupo 801">
      <path id="Trazado_2737" data-name="Trazado 2737" d="M42.341,0A42.341,42.341,0,1,0,84.683,42.341,42.341,42.341,0,0,0,42.341,0Zm23.9,65.616a33.983,33.983,0,0,1-23.9,9.625,33.826,33.826,0,0,1-23.9-9.625A32.689,32.689,0,0,1,8.527,41.975a31.6,31.6,0,0,1,9.917-23.129,34.526,34.526,0,0,1,23.9-9.369,34.4,34.4,0,0,1,23.9,9.369,31.663,31.663,0,0,1,9.917,23.129A32.689,32.689,0,0,1,66.238,65.616Z" fill="#2cacb3"/>
      <path id="Trazado_2738" data-name="Trazado 2738" d="M69.478,43.8C54.511,43.8,42.8,55.218,42.8,69.783a26.678,26.678,0,1,0,53.357,0C96.157,55.181,84.446,43.8,69.478,43.8Z" transform="translate(-27.137 -27.771)" fill="#2cacb3"/>
    </g>
    <ellipse id="Elipse_61" data-name="Elipse 61" cx="27.008" cy="27.008" rx="27.008" ry="27.008" transform="translate(15.334 15.334)" fill="#f7c906"/>
    <g id="Grupo_814" data-name="Grupo 814" transform="translate(38.828 24.995)">
      <g id="Grupo_804" data-name="Grupo 804">
        <g id="Grupo_803" data-name="Grupo 803">
          <g id="Grupo_802" data-name="Grupo 802">
            <rect id="Rectángulo_1893" data-name="Rectángulo 1893" width="7.063" height="7.063" fill="#fff"/>
          </g>
        </g>
      </g>
      <g id="Grupo_807" data-name="Grupo 807" transform="translate(0 9.222)">
        <g id="Grupo_806" data-name="Grupo 806">
          <g id="Grupo_805" data-name="Grupo 805">
            <rect id="Rectángulo_1894" data-name="Rectángulo 1894" width="7.063" height="7.063" fill="#fff"/>
          </g>
        </g>
      </g>
      <g id="Grupo_810" data-name="Grupo 810" transform="translate(0 18.444)">
        <g id="Grupo_809" data-name="Grupo 809">
          <g id="Grupo_808" data-name="Grupo 808">
            <rect id="Rectángulo_1895" data-name="Rectángulo 1895" width="7.063" height="7.063" fill="#fff"/>
          </g>
        </g>
      </g>
      <g id="Grupo_813" data-name="Grupo 813" transform="translate(0 27.666)">
        <g id="Grupo_812" data-name="Grupo 812">
          <g id="Grupo_811" data-name="Grupo 811">
            <rect id="Rectángulo_1896" data-name="Rectángulo 1896" width="7.063" height="7.063" fill="#fff"/>
          </g>
        </g>
      </g>
    </g>
  </g>
  <rect id="Rectángulo_1897" data-name="Rectángulo 1897" width="5.526" height="84.5" transform="translate(107.079 0.22)" fill="#eff4f6"/>
  <g id="Grupo_816" data-name="Grupo 816" transform="translate(142.98 19.064)">
    <path id="Trazado_2739" data-name="Trazado 2739" d="M432.492,72.846c.183,14.126-6.587,21.079-20.64,21.226h-.512c-8.2,0-12.992-2.452-15.553-7.392v20.494H390.7V53.743h5.087v5.563c2.6-4.721,7.429-7.1,15.553-7.209C425.356,51.95,432.309,58.72,432.492,72.846Zm-5.123.073c-.146-11.125-4.648-16.175-15.517-16.175h-.476c-11.235.146-15.736,5.27-15.626,16.541s4.794,16.322,15.992,16.175C422.978,89.314,427.515,84.191,427.369,72.919Z" transform="translate(-390.7 -52.094)" fill="#eff4f6"/>
    <path id="Trazado_2740" data-name="Trazado 2740" d="M566.186,53.806V92.525H561.1V86.779c-2.562,4.94-7.356,7.392-15.553,7.392h-.512c-14.053-.183-20.823-7.1-20.64-21.226s7.136-20.9,21.152-20.75c8.161.11,12.955,2.489,15.553,7.209v-5.6Zm-5.123,19.542c.146-11.271-4.391-16.395-15.627-16.541h-.476c-10.869,0-15.37,5.05-15.517,16.175-.146,11.272,4.391,16.395,15.627,16.541C556.269,89.633,560.916,84.62,561.063,73.348Z" transform="translate(-475.465 -52.157)" fill="#eff4f6"/>
    <path id="Trazado_2741" data-name="Trazado 2741" d="M707.886,56.6V82.29c0,16.98-3.586,27.483-21.372,27.483H673.742v-4.648h12.772c10.247,0,14.638-3.879,15.882-14.785-2.671,4.428-7.392,6.624-15.151,6.624h-.512c-14.053-.183-20.823-7.1-20.64-21.226V56.6h5.087V75.776c-.146,11.272,4.391,16.395,15.626,16.541,11.2.146,15.883-4.867,15.992-16.175V56.6Z" transform="translate(-565.309 -54.951)" fill="#eff4f6"/>
  </g>
</svg>
