<svg id="Group_894" data-name="Group 894" xmlns="http://www.w3.org/2000/svg" width="401.507" height="74.971" viewBox="0 0 401.507 74.971">
  <g id="Group_890" data-name="Group 890" transform="translate(0 9.644)">
    <path id="Path_2849" data-name="Path 2849" d="M62.113,49.089c0,9.125-4.977,16.384-16.28,16.384H0V10.1H43.656c11.406,0,14.932,5.7,14.932,14.1a17.263,17.263,0,0,1-3.94,10.369A18.506,18.506,0,0,1,62.113,49.089ZM18.561,29.595H35.775c1.867,0,4.148,0,4.148-3.007s-2.281-3.007-4.148-3.007H18.561Zm24.99,17.939c0-2.9-2.281-2.9-4.148-2.9H18.665v5.807H39.4C41.167,50.437,43.552,50.437,43.552,47.534Z" transform="translate(0 -9.27)" fill="#353535"/>
    <path id="Path_2850" data-name="Path 2850" d="M95.123,66.2C73.036,66.2,63.6,56.97,63.6,37.683V10.1H82.161V37.683c0,5.911,1.97,11.1,12.858,11.1s12.858-5.288,12.858-11.1V10.1h18.561V37.683C126.543,56.866,117.107,66.2,95.123,66.2Z" transform="translate(2.35 -9.27)" fill="#353535"/>
    <path id="Path_2851" data-name="Path 2851" d="M150.058,45.9c0,2.7,2.281,4.459,14.1,4.459,10.992,0,12.651-.83,12.651-2.8,0-2.385-1.659-2.7-13.377-3.111-22.606-.83-31.316-4.874-31.316-17.732,0-12.132,10.784-17.421,30.59-17.421,19.495,0,30.59,5.185,30.59,19.391H174.737c0-2.9-4.251-3.526-13.377-3.526-8.71,0-10.473.518-10.473,2.592s1.763,2.074,12.651,2.489c19.7.83,31.938,2.385,31.938,16.8,0,15.243-11.406,19.08-31.938,19.08S131.6,62.288,131.6,45.8h18.458Z" transform="translate(4.863 -9.3)" fill="#353535"/>
    <path id="Path_2852" data-name="Path 2852" d="M230.323,9.4c20.013,0,30.486,7.777,31.316,25.2h-19.08c-.726-5.185-4.355-7.777-12.236-7.777-10.992,0-12.858,5.185-12.858,10.992,0,5.911,1.97,11.1,12.858,11.1,7.881,0,11.51-2.7,12.236-7.985h19.08c-.83,17.524-11.2,25.405-31.316,25.405-22.087,0-31.523-9.229-31.523-28.516C198.9,18.525,208.34,9.4,230.323,9.4Z" transform="translate(7.346 -9.296)" fill="#353535"/>
    <path id="Path_2853" data-name="Path 2853" d="M304.811,55.515H283.45l-3.422,9.955H259.6L280.339,10.2h27.583l20.739,55.269H308.233Zm-4.874-14.206-5.807-16.9-5.807,16.9Z" transform="translate(9.592 -9.267)" fill="#353535"/>
    <path id="Path_2854" data-name="Path 2854" d="M326.4,37.712c0-19.184,9.436-28.412,31.523-28.412,21.983,0,31.523,9.229,31.523,28.412s-9.54,28.516-31.523,28.516C335.836,66.229,326.4,57,326.4,37.712Zm44.381,0c0-5.807-1.866-10.992-12.858-10.992s-12.858,5.185-12.858,10.992c0,5.911,1.97,11.1,12.858,11.1C368.915,48.911,370.781,43.623,370.781,37.712Z" transform="translate(12.06 -9.3)" fill="#353535"/>
  </g>
  <g id="Group_891" data-name="Group 891" transform="translate(10.266)">
    <rect id="Rectangle_1919" data-name="Rectangle 1919" width="12.547" height="12.547" transform="translate(21.257)" fill="#353535"/>
    <rect id="Rectangle_1920" data-name="Rectangle 1920" width="12.547" height="12.547" fill="#353535"/>
    <rect id="Rectangle_1921" data-name="Rectangle 1921" width="12.547" height="12.547" transform="translate(21.257 62.424)" fill="#353535"/>
    <rect id="Rectangle_1922" data-name="Rectangle 1922" width="12.547" height="12.547" transform="translate(0 62.424)" fill="#353535"/>
  </g>
</svg>
