<svg id="Grupo_839" data-name="Grupo 839" xmlns="http://www.w3.org/2000/svg" width="111.462" height="23.555" viewBox="0 0 111.462 23.555">
  <path id="Trazado_2785" data-name="Trazado 2785" d="M0,25.9H7.9a9.2,9.2,0,0,1,2.521.307,5.457,5.457,0,0,1,1.788.852,3.433,3.433,0,0,1,1.056,1.277,3.6,3.6,0,0,1,.341,1.6,3.7,3.7,0,0,1-.886,2.47,3.823,3.823,0,0,1,1.516,1.567,4.638,4.638,0,0,1,.494,2.2,4.938,4.938,0,0,1-.341,1.856,3.779,3.779,0,0,1-1.056,1.431,4.828,4.828,0,0,1-1.771.9,9.284,9.284,0,0,1-2.538.324H0Zm9.231,5.757c.255,0,.511.017.766.034a1.889,1.889,0,0,0,.647-1.4,1.429,1.429,0,0,0-.63-1.26,3.344,3.344,0,0,0-1.873-.443H3.083v3.083H9.231Zm-.17,6.574a2.781,2.781,0,0,0,1.805-.511,1.76,1.76,0,0,0,.613-1.431,1.818,1.818,0,0,0-.613-1.448,2.75,2.75,0,0,0-1.805-.511H3.083v3.9Z" transform="translate(0 -21.489)" fill="#3d549e"/>
  <path id="Trazado_2786" data-name="Trazado 2786" d="M112.678,27.917h.2a1.41,1.41,0,0,1,1.414,1.414v6.591a5.061,5.061,0,0,0,.272,1.754,3.465,3.465,0,0,0,.8,1.294,3.534,3.534,0,0,0,1.311.8,5.5,5.5,0,0,0,1.839.272,5.4,5.4,0,0,0,1.822-.272,3.471,3.471,0,0,0,1.328-.8,3.262,3.262,0,0,0,.8-1.294,5.06,5.06,0,0,0,.273-1.754V29.314a1.41,1.41,0,0,1,1.414-1.414h0a1.41,1.41,0,0,1,1.414,1.414v6.949a6.762,6.762,0,0,1-.477,2.606,5.551,5.551,0,0,1-1.4,2.01,6.412,6.412,0,0,1-2.231,1.294,10.223,10.223,0,0,1-6.063,0,6.116,6.116,0,0,1-2.231-1.294,5.551,5.551,0,0,1-1.4-2.01,6.762,6.762,0,0,1-.477-2.606V29.314A1.378,1.378,0,0,1,112.678,27.917Z" transform="translate(-92.342 -23.148)" fill="#3d549e"/>
  <path id="Trazado_2787" data-name="Trazado 2787" d="M221.488,38.777a1.325,1.325,0,0,1,1.7-.46l.562.255a11.65,11.65,0,0,0,1.686.6,12.117,12.117,0,0,0,1.839.375,15.635,15.635,0,0,0,2.044.136,12.011,12.011,0,0,0,2.231-.17,5.545,5.545,0,0,0,1.5-.477,2.267,2.267,0,0,0,.852-.715,1.7,1.7,0,0,0,.273-.9,1.431,1.431,0,0,0-.664-1.243,3.6,3.6,0,0,0-2.027-.46,11.218,11.218,0,0,0-1.277.085c-.443.051-.9.1-1.345.17-.46.068-.9.119-1.345.17a10.9,10.9,0,0,1-1.243.085,6.817,6.817,0,0,1-1.873-.255,5.234,5.234,0,0,1-1.584-.749,3.753,3.753,0,0,1-1.107-1.26A3.608,3.608,0,0,1,221.3,32.2a4.005,4.005,0,0,1,.17-1.175A3.756,3.756,0,0,1,222,29.9a4.534,4.534,0,0,1,.92-.988,5.529,5.529,0,0,1,1.363-.8,9.658,9.658,0,0,1,1.856-.528,14.324,14.324,0,0,1,2.4-.187,18.86,18.86,0,0,1,1.959.1,17.441,17.441,0,0,1,1.925.307,18.618,18.618,0,0,1,1.805.477.316.316,0,0,0,.119.034,1.338,1.338,0,0,1,.766,1.908h0a1.331,1.331,0,0,1-1.6.63,1.675,1.675,0,0,0-.272-.085,13.485,13.485,0,0,0-1.482-.392,14.919,14.919,0,0,0-1.6-.273,13.513,13.513,0,0,0-1.669-.1,9.392,9.392,0,0,0-2.01.17,4.71,4.71,0,0,0-1.243.443,1.739,1.739,0,0,0-.647.613,1.415,1.415,0,0,0-.187.681,1.236,1.236,0,0,0,.579,1.056,3.154,3.154,0,0,0,1.788.409,8.937,8.937,0,0,0,1.107-.068c.426-.051.852-.1,1.311-.153s.937-.1,1.414-.153a13.2,13.2,0,0,1,1.4-.068,8.221,8.221,0,0,1,2.265.29,4.551,4.551,0,0,1,1.652.818,3.379,3.379,0,0,1,1,1.294,4.518,4.518,0,0,1-.238,3.934,4.94,4.94,0,0,1-1.652,1.652,8.743,8.743,0,0,1-2.589,1.022,14.677,14.677,0,0,1-3.372.341,18.549,18.549,0,0,1-2.4-.153,18.109,18.109,0,0,1-2.248-.443,15.135,15.135,0,0,1-2.044-.681c-.136-.051-.273-.119-.409-.17a1.334,1.334,0,0,1-.562-1.959Z" transform="translate(-183.508 -22.733)" fill="#3d549e"/>
  <path id="Trazado_2788" data-name="Trazado 2788" d="M335.1,34.741a7.149,7.149,0,0,1,.579-2.9,6.557,6.557,0,0,1,1.7-2.333,7.945,7.945,0,0,1,2.708-1.55,10.96,10.96,0,0,1,3.628-.562,13.9,13.9,0,0,1,3.253.358,12.035,12.035,0,0,1,1.567.511,1.154,1.154,0,0,1,.545,1.652l-.153.255a1.156,1.156,0,0,1-1.414.46H347.5a6.378,6.378,0,0,0-1.056-.324c-.375-.085-.766-.153-1.158-.2a9.327,9.327,0,0,0-1.192-.068,8.762,8.762,0,0,0-2.521.341,5.633,5.633,0,0,0-1.856.971,4.286,4.286,0,0,0-1.158,1.5,4.657,4.657,0,0,0-.392,1.908,4.714,4.714,0,0,0,.409,1.976,4.218,4.218,0,0,0,1.192,1.55,5.3,5.3,0,0,0,1.891,1.022,8.284,8.284,0,0,0,2.538.375,10.725,10.725,0,0,0,1.277-.085q.639-.1,1.226-.255a9.019,9.019,0,0,0,1.141-.392c.051-.017.085-.034.136-.051a1.14,1.14,0,0,1,1.431.46l.187.307A1.138,1.138,0,0,1,349.1,41.3a11.572,11.572,0,0,1-1.635.6,12.324,12.324,0,0,1-3.321.426,11.965,11.965,0,0,1-3.934-.579,8.286,8.286,0,0,1-2.827-1.6,6.6,6.6,0,0,1-1.7-2.4A7.765,7.765,0,0,1,335.1,34.741Z" transform="translate(-278.028 -22.733)" fill="#3d549e"/>
  <path id="Trazado_2789" data-name="Trazado 2789" d="M447.08,28h2.129a.805.805,0,0,1,.732.46L455.8,40.586a1.456,1.456,0,0,1-1.311,2.095h0a1.445,1.445,0,0,1-1.311-.835l-.749-1.584h-8.379l-.715,1.567a1.467,1.467,0,0,1-1.328.852h-.034a1.464,1.464,0,0,1-1.328-2.078l5.689-12.126A.835.835,0,0,1,447.08,28Zm4.241,9.64-3.134-6.591-3.049,6.591Z" transform="translate(-365.482 -23.231)" fill="#3d549e"/>
  <g id="Grupo_838" data-name="Grupo 838" transform="translate(93.111 3.202)">
    <path id="Trazado_2790" data-name="Trazado 2790" d="M555.488,21.27a6.336,6.336,0,1,1-6.336,6.336,6.345,6.345,0,0,1,6.336-6.336m0-2.47a8.788,8.788,0,1,0,8.788,8.788,8.788,8.788,0,0,0-8.788-8.788Z" transform="translate(-546.7 -18.8)" fill="#34363d"/>
  </g>
  <path id="Trazado_2791" data-name="Trazado 2791" d="M630.919,16.807l-2.112,2.112a1.336,1.336,0,0,1-1.873,0h0a1.337,1.337,0,0,1,0-1.873l2.112-2.112a1.336,1.336,0,0,1,1.873,0h0A1.336,1.336,0,0,1,630.919,16.807Z" transform="translate(-519.839 -12.072)" fill="#34363d"/>
  <path id="Trazado_2792" data-name="Trazado 2792" d="M15.226,0h0A1.221,1.221,0,0,0,14,1.226V4.292a1.221,1.221,0,0,0,1.226,1.226h0a1.221,1.221,0,0,0,1.226-1.226V1.226A1.211,1.211,0,0,0,15.226,0Z" transform="translate(-11.616)" fill="#3d549e"/>
  <path id="Trazado_2793" data-name="Trazado 2793" d="M15.226,105.8h0A1.221,1.221,0,0,0,14,107.026v3.066a1.221,1.221,0,0,0,1.226,1.226h0a1.221,1.221,0,0,0,1.226-1.226v-3.066A1.221,1.221,0,0,0,15.226,105.8Z" transform="translate(-11.616 -87.781)" fill="#3d549e"/>
  <path id="Trazado_2794" data-name="Trazado 2794" d="M48.026,0h0A1.236,1.236,0,0,0,46.8,1.243V4.309a1.236,1.236,0,0,0,1.243,1.226h0A1.236,1.236,0,0,0,49.27,4.292V1.226A1.236,1.236,0,0,0,48.026,0Z" transform="translate(-38.829)" fill="#3d549e"/>
  <path id="Trazado_2795" data-name="Trazado 2795" d="M48.326,105.8h0a1.236,1.236,0,0,0-1.226,1.243v3.066a1.236,1.236,0,0,0,1.243,1.226h0a1.236,1.236,0,0,0,1.226-1.243v-3.066A1.247,1.247,0,0,0,48.326,105.8Z" transform="translate(-39.078 -87.781)" fill="#3d549e"/>
</svg>
