<svg xmlns="http://www.w3.org/2000/svg" width="180" height="23.066" viewBox="0 0 180 23.066"><g transform="translate(1)"><g transform="translate(34.279 5.032)"><path d="M252.628,45.657c0,2.3-1.338,3.97-4.45,3.97H235.7V36h12c3.1,0,4.058,1.585,4.058,3.592a3.965,3.965,0,0,1-1.076,2.647A3.831,3.831,0,0,1,252.628,45.657Zm-13.409-4.3h7.243c.931,0,1.789,0,1.789-1.425,0-1.4-.858-1.4-1.818-1.4H239.2v2.821Zm9.889,4.13c0-1.44-.858-1.44-1.789-1.44h-8.1v2.88h8.1C248.251,46.937,249.109,46.937,249.109,45.482Z" transform="translate(-235.7 -35.796)" fill="#fff"/><path d="M420.881,49.831c-6.006,0-8.581-2.283-8.581-7.039V36h3.5v6.806c0,1.905.524,4.087,5.061,4.087s5.061-2.2,5.061-4.087V36h3.5v6.806C429.461,47.533,426.872,49.831,420.881,49.831Z" transform="translate(-386.616 -35.796)" fill="#fff"/><path d="M596.1,43.833c0,1.44,1.164,2.109,5.614,2.109,3.68,0,4.8-.407,4.8-1.483,0-1.134-.785-1.323-5.207-1.542-5.948-.276-8.3-1.207-8.3-4.261,0-3,3.054-3.956,8.159-3.956,5.148,0,8.261,1.28,8.261,4.654h-3.5c0-1.5-1.5-1.876-5.148-1.876-3.447,0-4.261.334-4.261,1.338,0,1.047.814,1.251,4.8,1.483,5.381.291,8.711.582,8.711,4.029,0,3.65-3.447,4.392-8.493,4.392-5.6,0-8.93-.96-8.93-4.887h3.5Z" transform="translate(-540.695 -34.685)" fill="#fff"/><path d="M780.5,34.6c5.439,0,8.159,2.065,8.522,6.006H785.44c-.334-2.2-2.022-3.054-4.945-3.054-3.563,0-5.061,1.265-5.061,4.058S776.961,45.7,780.5,45.7c2.909,0,4.625-.873,4.945-3.1H789c-.349,3.956-3.083,6.036-8.522,6.036-6.006,0-8.581-2.5-8.581-7.039C771.915,37.087,774.489,34.6,780.5,34.6Z" transform="translate(-693.918 -34.6)" fill="#fff"/><path d="M949.5,46.733h-8.159l-1.454,2.909H936L943.039,36h4.741l7.054,13.642h-3.883Zm-1.309-2.6-2.763-5.541-2.792,5.541Z" transform="translate(-834.153 -35.796)" fill="#fff"/><path d="M1112.8,41.6c0-4.523,2.574-7,8.581-7,5.977,0,8.581,2.5,8.581,7,0,4.523-2.589,7.039-8.581,7.039S1112.8,46.147,1112.8,41.6Zm13.642,0c0-2.763-1.4-4.058-5.061-4.058s-5.061,1.265-5.061,4.058,1.425,4.087,5.061,4.087S1126.442,44.388,1126.442,41.6Z" transform="translate(-985.24 -34.6)" fill="#fff"/></g><g transform="translate(-1)"><path d="M61.834,52.982a5.377,5.377,0,1,1-4.683-5.992A5.392,5.392,0,0,1,61.834,52.982Z" transform="translate(-43.684 -40.126)" fill="#fff"/><path d="M28.534,16.4c-.015,3.36-1.716,5.919-5.57,6.53a2.663,2.663,0,0,0-.48-.8c-1.076-1.382-2.152-2.763-3.229-4.13a1.448,1.448,0,0,0-.145-.16c.1-.131.2-.247.305-.378a8.022,8.022,0,0,0,1.614-3.36,8.381,8.381,0,0,0-.364-4.959,8.132,8.132,0,0,0-3.141-3.941,8.094,8.094,0,0,0-3.054-1.28c-.029,0-.058-.029-.087-.044l-1.091-.131a8.629,8.629,0,0,0-1.062.029,8.443,8.443,0,0,0-7.664,6.457A8.244,8.244,0,0,0,4.7,14.645a8.463,8.463,0,0,0,8.159,6.006,7.966,7.966,0,0,0,3.607-.844,1.53,1.53,0,0,1,.262-.116c.044.058.073.131.116.189l2.487,3.185L0,22.993.1,0l20.23.087c5.221.029,6.821,2.691,6.806,6.065a6.729,6.729,0,0,1-1.818,4.465A6.5,6.5,0,0,1,28.534,16.4Z" fill="#fff"/></g></g></svg>