<svg id="Grupo_892" data-name="Grupo 892" xmlns="http://www.w3.org/2000/svg" width="149.908" height="27.992" viewBox="0 0 149.908 27.992">
  <g id="Grupo_890" data-name="Grupo 890" transform="translate(0 3.601)">
    <path id="Trazado_2849" data-name="Trazado 2849" d="M23.191,24.657c0,3.407-1.858,6.117-6.078,6.117H0V10.1H16.3c4.259,0,5.575,2.129,5.575,5.265A6.446,6.446,0,0,1,20.4,19.237,6.909,6.909,0,0,1,23.191,24.657ZM6.93,17.379h6.427c.7,0,1.549,0,1.549-1.123s-.852-1.123-1.549-1.123H6.93Zm9.331,6.7c0-1.084-.852-1.084-1.549-1.084H6.969v2.168h7.743C15.37,25.161,16.261,25.161,16.261,24.076Z" transform="translate(0 -9.79)" fill="#fff"/>
    <path id="Trazado_2850" data-name="Trazado 2850" d="M75.37,31.045C67.123,31.045,63.6,27.6,63.6,20.4V10.1h6.93V20.4c0,2.207.736,4.143,4.8,4.143s4.8-1.975,4.8-4.143V10.1h6.93V20.4C87.1,27.561,83.577,31.045,75.37,31.045Z" transform="translate(-38.977 -9.79)" fill="#fff"/>
    <path id="Trazado_2851" data-name="Trazado 2851" d="M138.491,22.967c0,1.007.852,1.665,5.265,1.665,4.1,0,4.723-.31,4.723-1.045,0-.89-.619-1.007-4.994-1.161-8.44-.31-11.692-1.82-11.692-6.62,0-4.53,4.026-6.5,11.421-6.5,7.279,0,11.421,1.936,11.421,7.24h-6.93c0-1.084-1.587-1.316-4.994-1.316-3.252,0-3.91.194-3.91.968s.658.774,4.723.929c7.356.31,11.925.89,11.925,6.272,0,5.691-4.259,7.124-11.925,7.124S131.6,29.084,131.6,22.928h6.891Z" transform="translate(-80.65 -9.3)" fill="#fff"/>
    <path id="Trazado_2852" data-name="Trazado 2852" d="M210.57,9.4c7.472,0,11.383,2.9,11.692,9.408h-7.124c-.271-1.936-1.626-2.9-4.569-2.9-4.1,0-4.8,1.936-4.8,4.1,0,2.207.736,4.143,4.8,4.143,2.942,0,4.3-1.007,4.569-2.981h7.124c-.31,6.543-4.181,9.485-11.692,9.485-8.247,0-11.77-3.446-11.77-10.647C198.839,12.807,202.362,9.4,210.57,9.4Z" transform="translate(-121.833 -9.361)" fill="#fff"/>
    <path id="Trazado_2853" data-name="Trazado 2853" d="M276.48,27.119H268.5l-1.278,3.717H259.6L267.343,10.2h10.3l7.743,20.636h-7.627Zm-1.82-5.3L272.492,15.5l-2.168,6.311Z" transform="translate(-159.093 -9.852)" fill="#fff"/>
    <path id="Trazado_2854" data-name="Trazado 2854" d="M326.4,19.908c0-7.162,3.523-10.608,11.77-10.608,8.208,0,11.77,3.446,11.77,10.608s-3.562,10.647-11.77,10.647C329.923,30.555,326.4,27.109,326.4,19.908Zm16.57,0c0-2.168-.7-4.1-4.8-4.1s-4.8,1.936-4.8,4.1c0,2.207.736,4.143,4.8,4.143C342.274,24.09,342.97,22.115,342.97,19.908Z" transform="translate(-200.031 -9.3)" fill="#fff"/>
  </g>
  <g id="Grupo_891" data-name="Grupo 891" transform="translate(3.833)">
    <rect id="Rectángulo_1919" data-name="Rectángulo 1919" width="4.685" height="4.685" transform="translate(7.937)" fill="#fff"/>
    <rect id="Rectángulo_1920" data-name="Rectángulo 1920" width="4.685" height="4.685" fill="#fff"/>
    <rect id="Rectángulo_1921" data-name="Rectángulo 1921" width="4.685" height="4.685" transform="translate(7.937 23.307)" fill="#fff"/>
    <rect id="Rectángulo_1922" data-name="Rectángulo 1922" width="4.685" height="4.685" transform="translate(0 23.307)" fill="#fff"/>
  </g>
</svg>
