<svg id="Grupo_870" data-name="Grupo 870" xmlns="http://www.w3.org/2000/svg" width="275.231" height="73.879" viewBox="0 0 275.231 73.879">
  <g id="Grupo_820" data-name="Grupo 820" transform="translate(0 0)">
    <path id="Trazado_2742" data-name="Trazado 2742" d="M477.144,57.347c.119-2.456.215-4.293.31-6.344h10.922v61.027c-12.4,0-24.707,1.1-36.7-.286-14.786-1.693-25.279-15.764-24.993-30.836a30.429,30.429,0,0,1,26.09-29.548C461.619,50,469.465,52.268,477.144,57.347ZM476.4,100.3c0-6.677.072-13-.024-19.293-.143-9.635-8.49-17.838-18.315-18.053-10.04-.238-18.792,7.8-19.15,17.576-.382,10.636,6.94,19.269,17.1,19.722C462.621,100.536,469.2,100.3,476.4,100.3Z" transform="translate(-324.922 -38.824)" fill="#225491"/>
    <path id="Trazado_2743" data-name="Trazado 2743" d="M801.6,74.048H790.057a89.5,89.5,0,0,0-.763-9.3,18.291,18.291,0,0,0-16.622-15.239c-6.081-.429-12.21-.119-18.315-.262-2.122-.048-2.432,1.1-2.408,2.814.048,5.867.024,11.733.024,17.576v4.317H740V.5h11.876V36.511c8.323,0,16.36.882,24.087-.238,8.156-1.192,13.546-9.205,13.832-17.767.072-1.86,0-3.744,0-5.89h11.853c1.478,12.163-1.979,22.441-12.139,30.526C799.239,51.177,803.1,61.384,801.6,74.048Z" transform="translate(-563.524 -0.388)" fill="#225491"/>
    <path id="Trazado_2744" data-name="Trazado 2744" d="M12.258,24.372H0V12.543H12.139V.5H24.3V12.376H67.323c-3.124,3.768-6.153,7.584-9.4,11.209-.644.715-2.194.859-3.339.859-8.728.072-17.457.024-26.185.048-1.216,0-2.433.119-3.649.167,0,7.441-.692,14.714.167,21.773,1.145,9.444,8.633,15.263,18.2,15.477,2.48.048,4.96,0,7.7,0V73.618C29.071,77.673,12.783,62.1,12.306,44.357,12.115,37.894,12.258,31.431,12.258,24.372Z" transform="translate(0 -0.388)" fill="#225491"/>
    <path id="Trazado_2745" data-name="Trazado 2745" d="M308.038,50.169c-3.1,3.72-6.105,7.441-9.277,11.018a5.154,5.154,0,0,1-2.933,1.169c-11.375,1.812-17.29,8.657-17.314,20.2-.024,9.348-.024,18.7-.048,28.045a8,8,0,0,1-.215,1.073h-12.02V101.18c0-6.367-.048-12.711,0-19.078.143-17.934,12.473-30.907,30.383-31.885C300.526,49.979,304.461,50.169,308.038,50.169Z" transform="translate(-202.725 -38.157)" fill="#225491"/>
    <path id="Trazado_2746" data-name="Trazado 2746" d="M1053.4,128.9h11.519v42.784H1053.4Z" transform="translate(-802.184 -98.167)" fill="#225491"/>
    <g id="Grupo_819" data-name="Grupo 819" transform="translate(250.988)">
      <path id="Trazado_2747" data-name="Trazado 2747" d="M1052.554,24.061c0-4.865-.286-9.205.071-13.522C1053.15,4.148,1059.16-.455,1065.79.07a12.092,12.092,0,0,1,10.9,12.091,11.591,11.591,0,0,1-11.376,11.876C1061.211,24.157,1057.133,24.061,1052.554,24.061Z" transform="translate(-1052.446 -0.029)" fill="#f61408"/>
    </g>
  </g>
</svg>
